<?xml version="1.0" standalone="no"?>
<!DOCTYPE svg PUBLIC "-//W3C//DTD SVG 20010904//EN"
 "http://www.w3.org/TR/2001/REC-SVG-20010904/DTD/svg10.dtd">
<svg version="1.0" xmlns="http://www.w3.org/2000/svg"
 width="984.000000pt" height="984.000000pt" viewBox="0 0 984.000000 984.000000"
 preserveAspectRatio="xMidYMid meet">
<metadata>
Created by potrace 1.11, written by Peter Selinger 2001-2013
</metadata>
<g transform="translate(0.000000,984.000000) scale(0.100000,-0.100000)"
fill="#000000" stroke="none">
<path d="M1483 6428 l2 -1333 322 -1 c284 0 323 2 327 15 3 9 4 266 4 571 0
305 1 563 1 573 1 17 20 5 80 -53 9 -9 52 -47 96 -85 44 -39 82 -72 85 -75 3
-3 39 -34 80 -69 41 -36 80 -69 85 -75 6 -6 42 -38 80 -70 39 -33 75 -64 80
-70 49 -52 45 -53 142 26 49 40 107 87 129 105 210 168 372 300 388 315 23 21
43 23 43 6 0 -11 10 -61 29 -143 8 -34 62 -171 91 -230 198 -399 597 -680
1038 -731 69 -8 3755 -12 3760 -4 3 5 -31 43 -209 230 -39 42 -136 145 -216
229 -80 85 -161 171 -180 191 -19 21 -87 92 -150 160 -63 67 -137 145 -165
174 -217 227 -310 330 -310 341 0 7 52 68 116 136 64 68 134 142 154 164 80
85 324 343 405 428 47 49 111 117 143 150 52 56 208 221 326 346 24 25 57 61
74 78 l31 33 -1463 -1 -1463 -2 59 -31 c32 -17 73 -41 90 -54 17 -12 36 -22
41 -22 6 0 12 -3 14 -7 2 -5 21 -21 43 -38 116 -86 279 -270 344 -387 l26 -48
417 -2 417 -3 -77 -81 c-42 -44 -129 -136 -192 -204 -63 -68 -132 -142 -153
-164 -21 -23 -84 -90 -140 -150 -56 -60 -108 -115 -115 -123 -8 -7 -10 -18 -5
-27 7 -12 79 -89 273 -296 19 -20 87 -92 150 -160 63 -68 145 -155 182 -194
37 -39 65 -73 62 -75 -5 -5 -1024 -8 -1024 -3 0 1 11 19 24 40 35 56 90 169
111 227 9 28 21 59 25 70 31 73 53 219 56 370 6 267 -43 467 -169 690 -74 130
-216 299 -318 377 -17 12 -43 32 -57 44 -37 27 -178 114 -187 114 -5 0 -31 11
-59 24 -88 41 -203 75 -341 102 -50 9 -286 12 -345 4 -162 -23 -323 -70 -425
-123 -22 -12 -42 -21 -45 -22 -8 0 -165 -98 -170 -106 -3 -4 -111 -86 -240
-183 -129 -96 -239 -179 -245 -183 -5 -5 -26 -19 -45 -33 -19 -13 -37 -27 -40
-30 -3 -3 -139 -106 -303 -228 l-298 -223 -42 34 c-23 20 -56 48 -73 64 -17
15 -59 53 -94 83 -34 30 -72 64 -84 75 -12 11 -57 52 -101 90 -44 39 -82 72
-85 75 -3 3 -41 37 -85 75 -43 39 -86 77 -95 85 -9 8 -49 44 -90 80 -40 36
-78 70 -84 75 -6 6 -47 41 -91 79 -44 39 -84 75 -90 80 -5 6 -44 40 -85 76
-41 36 -91 79 -110 97 -19 17 -47 41 -62 53 l-28 21 3 -1333z m3417 675 c209
-51 384 -193 472 -383 40 -85 60 -176 63 -280 13 -497 -478 -839 -952 -664
-26 9 -55 23 -64 31 -8 7 -19 13 -23 13 -16 0 -96 62 -147 112 -130 131 -199
291 -204 476 -12 454 417 803 855 695z"/>
<path d="M80 4136 c0 -28 -2 -100 -4 -161 -2 -60 -7 -234 -11 -385 -5 -151 -9
-304 -10 -340 -1 -36 -3 -116 -5 -179 l-2 -115 89 1 c49 0 97 2 105 6 14 5 16
48 17 338 1 183 3 335 5 336 2 2 47 -79 102 -179 54 -101 110 -204 124 -229
14 -26 51 -96 84 -155 32 -60 62 -112 67 -115 5 -3 20 -4 32 -3 12 1 27 3 32
3 6 1 18 16 27 34 10 17 66 124 126 237 60 113 132 250 161 305 29 55 56 104
61 108 4 5 8 -146 9 -335 1 -188 6 -345 10 -348 5 -3 103 -5 218 -4 l208 0 52
120 52 119 260 1 260 2 52 -119 c34 -76 59 -119 68 -120 9 0 59 -1 111 -1 88
-1 95 0 93 18 -1 11 -31 80 -66 154 -36 74 -75 158 -87 185 -12 28 -47 101
-76 163 -30 63 -54 115 -54 117 0 1 -31 69 -70 149 -38 81 -70 149 -70 151 0
5 -92 202 -118 253 -11 22 -24 32 -39 32 -19 0 -31 -17 -73 -105 -27 -58 -50
-107 -50 -109 0 -2 -30 -66 -66 -142 -36 -77 -91 -193 -121 -259 -30 -66 -70
-151 -88 -190 -79 -168 -110 -235 -146 -312 -21 -46 -40 -83 -43 -83 -2 0 -5
44 -6 98 -1 53 -3 144 -5 202 -2 58 -7 209 -10 335 -9 318 -13 451 -16 516
l-2 57 -41 0 c-23 1 -46 -2 -51 -6 -6 -4 -64 -104 -129 -222 -66 -118 -127
-228 -136 -245 -50 -90 -146 -262 -155 -277 -5 -10 -23 -42 -39 -73 -34 -64
-36 -63 -85 27 -17 31 -60 107 -96 169 -36 61 -65 113 -65 115 0 2 -17 32 -38
66 -21 35 -41 68 -43 73 -4 11 -200 357 -207 365 -2 2 -25 5 -52 6 l-49 2 -1
-52z m1842 -426 c10 -25 25 -58 33 -75 27 -58 115 -259 115 -262 0 -2 -81 -3
-181 -3 -141 0 -180 3 -176 13 9 23 129 291 154 347 15 34 27 49 30 40 3 -8
14 -35 25 -60z"/>
<path d="M2895 4175 c-170 -37 -304 -124 -400 -260 -73 -103 -103 -191 -109
-320 -7 -173 55 -335 179 -460 50 -51 188 -128 275 -154 110 -32 322 -34 440
-3 101 27 193 68 187 84 -3 7 -17 48 -32 91 -22 63 -30 77 -44 72 -186 -73
-376 -91 -496 -46 -99 37 -165 89 -217 171 -127 198 -46 498 162 597 97 47
140 52 485 53 l325 0 0 -52 c0 -29 0 -259 1 -510 0 -515 -9 -460 74 -460 19 0
60 1 90 1 l55 1 0 510 0 510 170 0 170 0 0 -510 c0 -280 3 -510 8 -510 128 -1
674 -1 719 -1 l61 1 -1 98 -2 97 -283 0 c-155 0 -283 2 -283 5 -1 3 -3 56 -4
118 l-2 112 373 0 374 0 0 -213 0 -213 103 1 102 0 2 115 c1 63 2 158 2 211
l1 97 31 -3 c86 -7 229 47 293 111 88 87 117 167 112 303 -5 132 -56 222 -171
301 -75 52 -125 62 -307 66 l-168 3 0 -294 0 -293 -372 1 -373 2 -1 193 c0
187 1 192 20 193 12 0 140 1 286 2 l265 2 2 98 1 97 -1021 -1 c-808 0 -1035
-3 -1082 -14z m2628 -228 c57 -33 89 -92 86 -155 -1 -26 -7 -56 -12 -67 -15
-32 -59 -75 -92 -90 -42 -19 -113 -27 -121 -13 -4 6 -6 52 -6 102 1 50 1 128
2 173 l0 82 51 -4 c30 -2 68 -14 92 -28z"/>
<path d="M6340 4167 c-41 -13 -104 -38 -140 -57 -70 -38 -181 -141 -222 -205
-35 -56 -75 -161 -84 -220 -41 -280 88 -525 337 -639 102 -46 156 -58 281 -62
172 -6 258 18 410 113 37 23 69 39 71 35 2 -4 3 -40 3 -79 l-1 -73 107 0 108
0 0 176 0 177 28 26 c65 61 51 65 180 -62 64 -63 164 -161 222 -216 l105 -101
113 0 113 0 35 78 c20 42 37 82 39 87 1 6 8 25 15 43 l12 32 261 0 c262 0 262
0 272 -23 6 -12 30 -67 54 -122 l43 -100 97 2 c53 1 116 2 141 2 36 1 52 7 82
34 20 17 49 43 65 56 66 57 169 146 184 161 105 100 116 105 217 102 l92 -3 0
-175 0 -174 108 0 107 0 0 605 0 606 -240 -2 c-216 -1 -291 -8 -370 -32 -22
-7 -100 -50 -112 -63 -8 -7 -22 -19 -31 -26 -43 -33 -94 -125 -110 -203 -10
-47 -9 -164 3 -220 17 -86 88 -189 156 -228 45 -26 47 -33 17 -59 -26 -22 -70
-63 -171 -155 -64 -60 -87 -74 -87 -54 0 5 -25 62 -56 127 -31 66 -82 173
-113 239 -31 66 -115 245 -186 397 -121 258 -132 278 -156 278 -23 0 -31 -12
-76 -107 -28 -60 -67 -144 -88 -188 -21 -44 -57 -120 -80 -170 -23 -49 -59
-126 -80 -170 -21 -44 -55 -118 -77 -165 -22 -47 -55 -118 -75 -158 l-35 -73
-189 188 c-104 103 -194 190 -201 194 -9 6 -9 12 3 26 24 28 153 177 159 183
3 3 32 37 65 75 33 39 63 72 66 75 3 3 39 43 80 90 41 47 84 96 96 110 12 14
33 39 47 55 l26 30 -127 3 -128 3 -44 -48 c-24 -26 -51 -58 -61 -70 -19 -24
-125 -147 -150 -173 -8 -8 -53 -60 -100 -115 -47 -55 -102 -118 -122 -140
l-38 -40 0 293 0 293 -107 -3 -108 -3 0 -397 0 -396 -25 -23 c-69 -61 -253
-164 -310 -173 -16 -2 -33 -7 -39 -10 -22 -14 -158 -8 -213 8 -137 40 -226
123 -276 258 -28 74 -25 207 5 285 64 164 214 257 413 256 77 0 131 -10 227
-42 l83 -29 20 46 c11 24 20 50 20 56 0 7 4 16 9 21 5 6 12 20 15 32 6 19 0
25 -41 43 -99 44 -192 62 -333 66 -117 3 -145 0 -210 -19z m3233 -176 c4 -1 7
-107 7 -237 l0 -235 -127 4 c-108 3 -136 7 -176 27 -85 40 -128 122 -121 230
6 90 48 155 120 187 48 20 201 33 297 24z m-1223 -221 c0 -4 21 -52 46 -107
25 -54 54 -118 64 -143 10 -25 27 -63 38 -85 l20 -40 -175 -3 c-97 -1 -178 0
-181 2 -4 5 42 114 119 282 15 33 33 73 38 88 10 24 31 29 31 6z"/>
<path d="M1611 2437 c-121 -38 -159 -223 -64 -309 109 -99 293 -31 307 114 14
140 -108 238 -243 195z m128 -50 c45 -22 66 -63 66 -127 0 -52 -4 -63 -30 -90
-43 -45 -93 -57 -147 -36 -24 9 -51 28 -62 42 -35 48 -31 135 9 187 30 40 108
51 164 24z"/>
<path d="M2072 2435 c-7 -12 -8 -17 -16 -111 -3 -40 -10 -85 -16 -100 -6 -16
-11 -30 -11 -32 4 -9 -13 -52 -19 -52 -11 0 -40 -29 -40 -40 0 -14 31 -20 49
-10 23 12 50 52 55 82 3 13 5 23 6 23 4 0 14 69 24 159 3 22 9 42 14 45 6 3
34 5 64 3 l54 -4 -1 -150 c0 -82 2 -153 5 -156 3 -4 13 -8 23 -8 16 -2 17 11
15 178 l-3 180 -98 2 c-57 0 -102 -3 -105 -9z"/>
<path d="M2491 2435 c-5 -5 -8 -86 -7 -180 l1 -170 100 1 c95 0 100 1 103 21
3 21 0 22 -77 20 -66 -2 -81 1 -82 13 -3 35 1 93 6 98 3 3 34 6 68 7 57 0 62
2 65 23 4 23 2 23 -67 20 l-71 -3 -1 35 c-1 36 1 73 5 77 3 3 15 3 96 3 49 0
63 8 51 29 -11 17 -178 22 -190 6z"/>
<path d="M2876 2430 c-2 -8 -5 -88 -5 -176 -1 -127 2 -163 12 -167 29 -11 34
10 33 151 -1 79 2 149 6 155 3 6 35 9 77 8 66 -2 71 -1 71 18 0 12 -3 21 -7
22 -5 0 -47 1 -96 2 -70 2 -88 -1 -91 -13z"/>
<path d="M3285 2434 c-8 -9 -18 -27 -21 -42 -4 -15 -10 -31 -14 -37 -4 -5 -24
-50 -44 -100 -33 -77 -62 -145 -72 -165 -1 -3 7 -6 18 -6 20 0 47 31 52 58 7
46 28 53 143 49 41 -1 43 -2 60 -51 10 -27 22 -50 28 -51 5 0 18 -2 27 -4 18
-3 17 3 -20 88 -10 23 -40 92 -67 154 -26 62 -54 114 -61 117 -8 3 -20 -2 -29
-10z m67 -174 c3 -23 0 -25 -49 -26 -33 -1 -53 3 -53 10 0 6 12 40 27 75 l27
64 23 -49 c12 -28 24 -61 25 -74z"/>
<path d="M3882 2439 c-12 -5 -31 -17 -42 -27 -18 -17 -19 -20 -5 -32 13 -10
18 -10 33 3 39 36 105 27 121 -16 15 -39 -14 -77 -60 -77 -33 0 -41 -8 -29
-30 6 -11 17 -16 32 -13 28 5 78 -31 78 -57 0 -10 -9 -28 -19 -41 -15 -19 -28
-24 -65 -23 -29 1 -53 8 -66 19 -15 14 -23 16 -32 7 -27 -27 36 -72 103 -72
104 0 158 105 88 171 -17 16 -26 29 -20 29 19 0 43 61 37 93 -5 26 -36 64 -55
68 -28 6 -80 5 -99 -2z"/>
<path d="M4329 2411 c-8 -19 -42 -99 -75 -178 -43 -98 -58 -143 -49 -146 19
-8 33 6 55 56 19 42 24 47 55 48 98 3 135 0 135 -11 0 -6 9 -30 21 -54 14 -32
26 -44 40 -43 10 1 19 4 19 8 0 4 -33 85 -74 180 -59 139 -77 173 -93 174 -15
1 -24 -8 -34 -34z m91 -171 c0 -3 -27 -5 -60 -6 -33 0 -60 1 -60 2 0 1 9 24
21 51 11 26 25 59 31 73 9 23 11 20 39 -45 16 -38 29 -72 29 -75z"/>
<path d="M5242 2281 c0 -91 2 -173 4 -182 4 -13 17 -16 67 -14 108 4 159 48
151 130 -6 60 -51 95 -121 95 -58 0 -56 -3 -55 76 1 46 -1 52 -22 56 l-23 5
-1 -166z m157 -35 c35 -37 11 -115 -36 -117 -10 0 -28 -2 -41 -3 -13 -2 -25 0
-27 4 -4 6 -9 115 -6 133 0 4 20 7 44 7 33 0 49 -6 66 -24z"/>
<path d="M5770 2267 l0 -182 183 1 c100 1 190 2 200 3 15 1 17 16 17 175 0
173 0 174 -23 178 l-22 4 0 -150 c1 -83 0 -155 -2 -161 -3 -8 -77 -11 -125 -6
-5 1 -8 73 -8 161 l0 159 -22 -8 c-22 -8 -22 -12 -21 -159 l1 -151 -27 -3
c-14 -2 -45 -1 -67 0 l-42 4 2 150 c1 148 1 151 -21 159 l-23 8 0 -182z"/>
<path d="M6443 2442 c-17 -3 -23 -10 -24 -30 -6 -151 -41 -282 -76 -282 -17 0
-14 -41 4 -47 6 -2 25 8 42 24 35 32 55 96 66 214 7 71 18 95 39 81 6 -3 29
-5 53 -3 l43 3 0 -155 c0 -120 3 -156 13 -160 8 -3 18 -2 23 1 6 4 10 82 9
180 l0 172 -25 1 c-109 3 -148 4 -167 1z"/>
<path d="M6898 2432 c-82 -32 -95 -172 -17 -200 19 -8 19 -8 -1 -29 -11 -12
-20 -26 -20 -30 -1 -4 -14 -24 -30 -43 -17 -19 -30 -37 -30 -41 0 -11 54 0 58
12 2 5 14 22 26 37 12 15 30 40 39 55 15 23 24 27 50 24 l32 -3 0 -60 c-1 -44
3 -61 15 -65 8 -4 18 -5 23 -2 4 2 7 83 7 179 0 132 -3 174 -12 175 -65 5
-111 2 -140 -9z m107 -100 l0 -67 -41 -3 c-54 -4 -93 25 -90 67 2 29 32 74 45
67 3 -2 15 0 25 4 11 3 29 5 40 3 19 -4 21 -12 21 -71z"/>
<path d="M7283 2442 l-33 -3 0 -174 c0 -129 3 -174 13 -177 10 -3 143 -3 185
1 6 1 12 10 12 20 0 17 -7 19 -62 19 -113 0 -104 -5 -103 59 l1 58 72 0 c67 0
73 1 70 20 -3 17 -11 20 -58 22 -30 1 -62 2 -71 2 -13 1 -16 11 -14 51 1 28 4
53 7 56 3 3 39 5 80 5 72 0 75 1 71 22 -4 20 -10 22 -71 22 -37 0 -82 -1 -99
-3z"/>
<path d="M7644 2441 c-2 -2 -4 -84 -4 -181 l0 -177 79 2 c63 1 84 6 110 24 17
12 31 30 32 39 0 9 2 26 4 36 5 27 -21 73 -45 81 -19 6 -18 7 7 29 21 18 26
31 25 61 -3 66 -36 88 -135 89 -38 1 -71 -1 -73 -3z m149 -59 c43 -38 7 -92
-63 -92 l-47 0 1 53 c1 28 4 54 8 58 14 10 83 -3 101 -19z m-2 -148 c33 -17
40 -62 13 -88 -15 -15 -27 -18 -74 -18 -46 0 -47 0 -44 55 1 28 2 55 3 58 2
12 74 8 102 -7z"/>
<path d="M8140 2405 c-11 -24 -20 -47 -20 -50 0 -3 -10 -27 -21 -53 -64 -143
-89 -201 -89 -211 0 -4 9 -7 20 -7 15 0 26 14 42 53 19 47 25 53 52 54 60 3
131 -2 137 -9 4 -4 14 -27 23 -52 13 -35 22 -45 41 -46 22 -2 23 1 14 25 -24
64 -133 317 -141 325 -19 23 -39 13 -58 -29z m93 -160 c1 -5 -24 -10 -55 -11
-66 -1 -70 5 -38 61 11 19 20 38 20 43 0 4 3 16 7 27 5 16 12 7 35 -45 16 -36
30 -69 31 -75z"/>
<path d="M4690 2266 c0 -136 3 -175 13 -179 28 -11 33 10 33 141 -1 72 1 132
4 132 3 0 31 -36 63 -80 31 -44 61 -80 65 -80 4 0 34 39 67 85 l61 84 -1 -132
c-1 -73 0 -137 3 -143 2 -7 12 -10 22 -7 14 4 19 16 22 56 1 29 1 70 -2 92 -3
22 -3 65 0 95 8 86 3 110 -24 110 -18 0 -34 -16 -65 -64 -57 -87 -91 -126 -91
-104 0 9 -3 18 -8 20 -4 2 -31 36 -61 76 -40 55 -59 72 -77 72 l-24 0 0 -174z"/>
<path d="M5523 2266 c0 -162 1 -175 18 -179 23 -6 22 -17 24 186 1 165 1 167
-21 167 -21 0 -21 -2 -21 -174z"/>
</g>
</svg>
